<svg xmlns="http://www.w3.org/2000/svg" viewBox="0 0 18.17 28"><path d="M13.28,11A6.84,6.84,0,0,1,17.45,8.9c.54-.08.72.07.72.61a6.26,6.26,0,0,1-1.89,4.86,6.51,6.51,0,0,1-3.34,1.54.73.73,0,0,0-.69.58,13.66,13.66,0,0,1-.48,1.3c.18.06.3,0,.42-.09a6.87,6.87,0,0,1,4.3-.05c.44.13.58.36.41.75A6.44,6.44,0,0,1,13.6,22a5.67,5.67,0,0,1-3.61.29,1.14,1.14,0,0,0-1.51.66,6,6,0,0,1,2.11.2,7.44,7.44,0,0,1,2.06.86c.35.22.42.49.17.81a6.13,6.13,0,0,1-5.15,2.68,6.72,6.72,0,0,1-3.08-.94.69.69,0,0,0-.78,0A20.5,20.5,0,0,1,.72,27.94a.52.52,0,0,1-.57-.05A.43.43,0,0,1,0,27.45c.06-.26.28-.34.5-.41a21.14,21.14,0,0,0,2.71-1.21c.32-.18.41-.32.24-.68a6.11,6.11,0,0,1-.56-3.94,6.54,6.54,0,0,1,2.74-3.87.37.37,0,0,1,.37-.1c.4.2.37-.09.39-.32A6.86,6.86,0,0,1,8,13.09a.47.47,0,0,0,.07-.54,6.88,6.88,0,0,1-.18-4.37c.1-.4.34-.51.78-.33a6.61,6.61,0,0,1,3.53,3l.14.26a10.4,10.4,0,0,0-.07-2.25c0-.18-.2-.27-.33-.39A6.32,6.32,0,0,1,10,5,6.43,6.43,0,0,1,11.27.24c.21-.31.49-.32.79,0,2,1.83,3,4.19,1.91,7a6.46,6.46,0,0,1-.58,1.18,1.1,1.1,0,0,0-.19.8A16.17,16.17,0,0,1,13.28,11ZM8.54,10.2a4.76,4.76,0,0,0,2.84,4.51c.29.16.39,0,.41-.23a8.56,8.56,0,0,0,0-1.68A4.82,4.82,0,0,0,8.91,9c-.18-.09-.27,0-.3.16A5.65,5.65,0,0,0,8.54,10.2Zm2.77,11.33a4.91,4.91,0,0,0,4.45-2.86c.13-.23,0-.28-.18-.31a5.82,5.82,0,0,0-2.78.1,5.18,5.18,0,0,0-2.89,2.61c-.12.21,0,.27.17.29Zm-.46-17.4A5.05,5.05,0,0,0,12.38,7.6c.2.22.33.15.45-.08A4.93,4.93,0,0,0,12,1.36c-.16-.18-.26-.17-.37,0A6,6,0,0,0,10.85,4.13ZM6.45,21A5.52,5.52,0,0,0,6,18.78c-.16-.4-.22-.41-.56-.11a5,5,0,0,0-1.2,6c.11.23.21.27.4.09A4.88,4.88,0,0,0,6.45,21Zm6.44-6.23c0,.25,0,.28.33.2a4.89,4.89,0,0,0,4-4.73c0-.24-.08-.33-.3-.27s-.62.18-.92.3A4.8,4.8,0,0,0,12.89,14.72ZM7.32,17.18a5.23,5.23,0,0,0,1.22,3.25c.18.24.31.17.45-.05a4.91,4.91,0,0,0-.32-6.23c-.14-.18-.23-.18-.34,0A5.49,5.49,0,0,0,7.32,17.18Zm.78,9.39a5.1,5.1,0,0,0,3.54-1.8c.13-.13.16-.24,0-.33a6.22,6.22,0,0,0-2.78-.63A5.75,5.75,0,0,0,5.4,25.58c-.22.18-.14.29.08.39A7,7,0,0,0,8.1,26.57Zm-1-3.64a8.54,8.54,0,0,0,1.11-1.14.25.25,0,0,0,0-.33l-.88-1.12A5.83,5.83,0,0,1,7.08,22.93ZM11,17.37c.16-.44.33-.89.49-1.34a.24.24,0,0,0-.1-.32,5.15,5.15,0,0,0-1-.46A10.77,10.77,0,0,1,11,17.37Z"/></svg>