<svg xmlns="http://www.w3.org/2000/svg" viewBox="0 0 18.2 28"><path d="M4.88,11c0-.78.07-1.49.1-2.19a.84.84,0,0,0-.19-.48A7.07,7.07,0,0,1,3.73,5a5.15,5.15,0,0,1,.71-2.76A7.63,7.63,0,0,1,6.1.21c.32-.28.6-.29.82,0,1.24,1.88,1.8,3.87.85,6.06A6.23,6.23,0,0,1,6.29,8.39a1.35,1.35,0,0,0-.43,1,13,13,0,0,0,0,1.65A6.26,6.26,0,0,1,7.13,9.36,7.31,7.31,0,0,1,9.45,7.87c.54-.22.77-.1.89.47a6.73,6.73,0,0,1-.24,4.25.39.39,0,0,0,.08.47,7.07,7.07,0,0,1,1.63,4.07c0,.19.07.23.25.14a.49.49,0,0,1,.55.11A6.34,6.34,0,0,1,15.39,22a6.36,6.36,0,0,1-.67,3.18c-.16.36-.1.5.24.68a22.4,22.4,0,0,0,2.74,1.22c.21.07.41.15.48.39a.43.43,0,0,1-.12.44.5.5,0,0,1-.56.07,19.25,19.25,0,0,1-2.93-1.31,1.06,1.06,0,0,0-1.17,0,6,6,0,0,1-4.29.74A6.69,6.69,0,0,1,5.37,24.8c-.27-.34-.2-.62.2-.85a7.16,7.16,0,0,1,4.17-1l-.56-.67c-.15-.18-.32-.09-.48-.06A6.76,6.76,0,0,1,4.79,22a6.27,6.27,0,0,1-3.52-3.7c-.15-.36,0-.57.43-.69a6.8,6.8,0,0,1,4.3.06l.3.11.1,0c-.2-.55-.4-1.1-.61-1.64-.09-.23-.33-.19-.52-.23a6.76,6.76,0,0,1-3.59-1.75,6,6,0,0,1-1.6-3.52A5.31,5.31,0,0,1,0,9.45c0-.46.2-.63.66-.56A6.82,6.82,0,0,1,4.88,11Zm3.34,6.42a6,6,0,0,0,1,3c.16.26.27.12.38,0a4.89,4.89,0,0,0,.27-6.23c-.12-.19-.24-.24-.4,0A5.62,5.62,0,0,0,8.22,17.44Zm6.25,5a5,5,0,0,0-1.81-3.82c-.22-.21-.32-.1-.43.13a4.91,4.91,0,0,0,1.31,6c.21.19.32.18.43-.08A6,6,0,0,0,14.47,22.4ZM9.64,10.22a5.45,5.45,0,0,0-.07-1.07c0-.25-.13-.3-.34-.18-2.54,1.36-3.12,3.14-2.83,5.56,0,.24.13.32.37.19A4.75,4.75,0,0,0,9.64,10.22Zm-6,8a8,8,0,0,0-1.09.13c-.21,0-.27.13-.15.33a9.28,9.28,0,0,0,.77,1.12,4.76,4.76,0,0,0,4.88,1.56c.24,0,.3-.14.16-.35s-.28-.39-.4-.6A4.55,4.55,0,0,0,3.67,18.23ZM5.3,14.74c-.23-2.22-1.11-3.89-3.61-4.69C.89,9.8.89,9.8,1,10.6a4.82,4.82,0,0,0,4,4.32C5.18,15,5.33,15,5.3,14.74Zm4.89,11.83A6.44,6.44,0,0,0,12.72,26c.22-.11.26-.22.06-.37s-.7-.54-1-.82a4.69,4.69,0,0,0-5.17-.34c-.19.09-.19.19,0,.34A5.21,5.21,0,0,0,10.19,26.57ZM7.33,3.81A5.83,5.83,0,0,0,6.57,1.4c-.1-.19-.19-.24-.36-.06a4.94,4.94,0,0,0-.85,6.18c.13.26.27.26.45.06A5.18,5.18,0,0,0,7.33,3.81Zm3.52,16.54L10,21.42c-.07.1-.15.21,0,.32.36.41.73.82,1.1,1.22A7.48,7.48,0,0,1,10.85,20.35Zm-3.64-3a11.07,11.07,0,0,1,.61-2.18l-1,.53c-.16.09-.14.24-.09.38C6.9,16.52,7.05,16.94,7.21,17.36Z"/></svg>