<svg id="Layer_1" data-name="Layer 1" xmlns="http://www.w3.org/2000/svg" xmlns:xlink="http://www.w3.org/1999/xlink" viewBox="0 0 339.19 81.46"><defs><style>.cls-1{fill:#a6a8ab;}.cls-2{fill:url(#linear-gradient);}.cls-3{fill:url(#linear-gradient-2);}.cls-4{fill:url(#linear-gradient-3);}.cls-5{fill:#fff;}</style><linearGradient id="linear-gradient" x1="48.26" y1="37.22" x2="30.7" y2="-0.32" gradientUnits="userSpaceOnUse"><stop offset="0" stop-color="#3b82f6"/><stop offset="1" stop-color="#3b82f6" stop-opacity="0"/></linearGradient><linearGradient id="linear-gradient-2" x1="40.14" y1="65.25" x2="38.18" y2="32.61" xlink:href="#linear-gradient"/><linearGradient id="linear-gradient-3" x1="68.24" y1="86.42" x2="35.37" y2="61.58" xlink:href="#linear-gradient"/></defs><path class="cls-1" d="M102.53,20a5.61,5.61,0,0,0,5-2.89l3.13,1.22A9.05,9.05,0,0,1,102.53,23a9.61,9.61,0,0,1-5-1.39,8.61,8.61,0,0,1-2.42-2.14,7.09,7.09,0,0,1-1.44-4.28v-.25c0-4.28,4-7.79,8.88-7.79a9.72,9.72,0,0,1,5,1.37A8.67,8.67,0,0,1,110,10.67l-2.53,2.2L100,19.42A6,6,0,0,0,102.53,20Zm0-9.83c-3,0-5.45,2.16-5.45,4.78v.25a4.07,4.07,0,0,0,.55,2.06l7.46-6.55A6.21,6.21,0,0,0,102.53,10.15Z"/><path class="cls-1" d="M110.44,7.2V7.14h4.21l4.67,5.53L124,7.14h4.29l-6.8,8.08L128,23H123.7l-4.38-5.24L114.91,23h-4.26l6.54-7.77Z"/><path class="cls-1" d="M145.55,14.93v.25c0,4.3-4,7.81-8.88,7.81s-8.9-3.51-8.9-7.81v-.25c0-4.28,4-7.79,8.9-7.79S145.55,10.65,145.55,14.93Zm-14.35,0v.25c0,2.64,2.47,4.8,5.47,4.8s5.45-2.16,5.45-4.8v-.25c0-2.62-2.46-4.78-5.45-4.78S131.2,12.31,131.2,14.93Z"/><path class="cls-1" d="M150.64,15.18c0,2.64,2.47,4.8,5.45,4.8a5.7,5.7,0,0,0,4.31-1.87l3.2,1.26A9.31,9.31,0,0,1,156.09,23c-4.9,0-8.88-3.51-8.88-7.81v-.25c0-4.28,4-7.79,8.88-7.79a9.23,9.23,0,0,1,7.51,3.62L160.4,12a5.76,5.76,0,0,0-4.31-1.85c-3,0-5.45,2.16-5.45,4.78Z"/><path class="cls-1" d="M172.29,7.14a7.39,7.39,0,0,1,3.83,1l-2,2.43a3.66,3.66,0,0,0-1.79-.46,3.18,3.18,0,0,0-3.37,2.93V23h-3.43V7.14h3.43v.77A7.46,7.46,0,0,1,172.29,7.14Z"/><path class="cls-1" d="M193.2,14.93v.25c0,4.3-4,7.81-8.89,7.81s-8.9-3.51-8.9-7.81v-.25c0-4.28,4-7.79,8.9-7.79S193.2,10.65,193.2,14.93Zm-14.36,0v.25c0,2.64,2.47,4.8,5.47,4.8s5.45-2.16,5.45-4.8v-.25c0-2.62-2.46-4.78-5.45-4.78S178.84,12.31,178.84,14.93Z"/><path class="cls-1" d="M193.43,7.14H197l2.84,9.68,2.61-9.35.09-.33h3.37l.09.31,2.75,9.37,2.7-9.68H215L210.55,23H207l-2.75-9.35L201.62,23H198.1Z"/><path class="cls-1" d="M229.8,21.33A9.72,9.72,0,0,1,224.33,23c-4.88,0-8.88-3.51-8.88-7.81v-.25c0-4.28,4-7.79,8.88-7.79a9.63,9.63,0,0,1,5.47,1.64V2.26h3.44V23H229.8Zm0-6.4c0-2.64-2.46-4.78-5.47-4.78s-5.45,2.14-5.45,4.78v.25c0,2.64,2.44,4.8,5.45,4.8s5.47-2.16,5.47-4.8Z"/><polygon class="cls-2" points="2.16 33.99 38.99 1.82 76.29 1.82 39.42 33.99 2.16 33.99"/><polygon class="cls-3" points="2.16 66.16 38.99 33.99 76.29 33.99 39.42 66.16 2.16 66.16"/><polygon class="cls-4" points="39.42 66.16 76.21 66.16 76.21 79.64 24.47 79.64 39.42 66.16"/><path class="cls-5" d="M129.23,34.68q5.52,4.6,5.52,12.68T129.23,60q-5.52,4.61-15.15,4.6H101.83v15H94.75V30.08h19.33Q123.71,30.08,129.23,34.68Zm-5.1,20.92q3.54-2.87,3.54-8.24t-3.54-8.25q-3.54-2.86-10.26-2.87h-12V58.47h12Q120.59,58.47,124.13,55.6Z"/><path class="cls-5" d="M151.74,43.46a19,19,0,0,1,8.42-1.7v6.59a12.6,12.6,0,0,0-1.55-.07c-3.69,0-6.58,1.09-8.68,3.29s-3.15,5.32-3.15,9.38V79.64H140V42.12h6.51v6.3A11.66,11.66,0,0,1,151.74,43.46Z"/><path class="cls-5" d="M170.64,77.58a18,18,0,0,1-7-6.83,19.33,19.33,0,0,1-2.52-9.87A19.36,19.36,0,0,1,163.67,51a17.65,17.65,0,0,1,7-6.79,21.78,21.78,0,0,1,20.07,0A17.67,17.67,0,0,1,197.64,51a19.36,19.36,0,0,1,2.52,9.88,19.33,19.33,0,0,1-2.52,9.87,18,18,0,0,1-6.93,6.83,21.54,21.54,0,0,1-20.07,0Zm16.53-5.13a11.68,11.68,0,0,0,4.49-4.67,15.44,15.44,0,0,0,0-13.81,11.45,11.45,0,0,0-4.49-4.63,13.7,13.7,0,0,0-13,0A11.74,11.74,0,0,0,169.68,54a15.19,15.19,0,0,0,0,13.81,12,12,0,0,0,4.53,4.67,13.48,13.48,0,0,0,13,0Z"/><path class="cls-5" d="M238.17,42.12,221.75,79.64h-6.94L198.39,42.12h7.08L218.35,72.2l13.17-30.08Z"/><path class="cls-5" d="M241.11,33.62a4.14,4.14,0,0,1-1.31-3.11,4.26,4.26,0,0,1,1.31-3.15,4.47,4.47,0,0,1,3.29-1.31,4.58,4.58,0,0,1,3.29,1.24A4.07,4.07,0,0,1,249,30.37a4.39,4.39,0,0,1-1.31,3.22,4.47,4.47,0,0,1-3.29,1.31A4.53,4.53,0,0,1,241.11,33.62Zm-.11,8.5h6.8V79.64H241Z"/><path class="cls-5" d="M292.61,27.11V79.64h-6.52v-6a14.64,14.64,0,0,1-5.73,4.74,17.7,17.7,0,0,1-7.65,1.63A19.62,19.62,0,0,1,263,77.65a17.1,17.1,0,0,1-6.76-6.76,20.09,20.09,0,0,1-2.45-10,19.87,19.87,0,0,1,2.45-10A17.29,17.29,0,0,1,263,44.17a19.72,19.72,0,0,1,9.76-2.41,17.91,17.91,0,0,1,7.44,1.53,14.42,14.42,0,0,1,5.66,4.49V27.11ZM279.72,72.45a11.58,11.58,0,0,0,4.53-4.67,15.44,15.44,0,0,0,0-13.81,11.35,11.35,0,0,0-4.53-4.63,13.62,13.62,0,0,0-12.92,0A11.74,11.74,0,0,0,262.27,54a15.19,15.19,0,0,0,0,13.81,12,12,0,0,0,4.53,4.67,13.4,13.4,0,0,0,12.92,0Z"/><path class="cls-5" d="M335.72,63.14H305.28a11.76,11.76,0,0,0,4.35,8,14.25,14.25,0,0,0,9.24,3,13.92,13.92,0,0,0,10.83-4.53L333.45,74a16.39,16.39,0,0,1-6.33,4.53,23.89,23.89,0,0,1-19-.88A17.49,17.49,0,0,1,301,70.79,20.94,20.94,0,0,1,300.92,51a17.4,17.4,0,0,1,6.73-6.83,19.11,19.11,0,0,1,9.66-2.45,18.75,18.75,0,0,1,9.59,2.45A17.13,17.13,0,0,1,333.49,51a20.78,20.78,0,0,1,2.37,10.05C335.86,61.61,335.81,62.29,335.72,63.14ZM309.13,50.47a12,12,0,0,0-3.85,7.79h24.06a12,12,0,0,0-3.85-7.75,12.68,12.68,0,0,0-16.36,0Z"/></svg>