<svg id="Layer_1" data-name="Layer 1" xmlns="http://www.w3.org/2000/svg" xmlns:xlink="http://www.w3.org/1999/xlink" viewBox="0 0 339.19 81.46"><defs><style>.cls-1{fill:#929497;}.cls-2{fill:url(#linear-gradient);}.cls-3{fill:url(#linear-gradient-2);}.cls-4{fill:url(#linear-gradient-3);}</style><linearGradient id="linear-gradient" x1="48.26" y1="37.12" x2="30.7" y2="-0.42" gradientUnits="userSpaceOnUse"><stop offset="0" stop-color="#3b82f6"/><stop offset="1" stop-color="#3b82f6" stop-opacity="0"/></linearGradient><linearGradient id="linear-gradient-2" x1="40.14" y1="65.15" x2="38.18" y2="32.51" xlink:href="#linear-gradient"/><linearGradient id="linear-gradient-3" x1="68.24" y1="86.32" x2="35.37" y2="61.48" xlink:href="#linear-gradient"/></defs><path class="cls-1" d="M102.53,19.88a5.59,5.59,0,0,0,5-2.89l3.13,1.23a9.06,9.06,0,0,1-8.15,4.67,9.61,9.61,0,0,1-5-1.39,8.61,8.61,0,0,1-2.42-2.14,7.07,7.07,0,0,1-1.44-4.28v-.25c0-4.27,4-7.78,8.88-7.78a9.72,9.72,0,0,1,5,1.37A8.67,8.67,0,0,1,110,10.58l-2.53,2.2L100,19.32A6,6,0,0,0,102.53,19.88Zm0-9.82c-3,0-5.45,2.16-5.45,4.77v.25a4,4,0,0,0,.55,2.06l7.46-6.54A6.21,6.21,0,0,0,102.53,10.06Z"/><path class="cls-1" d="M110.44,7.11V7.05h4.21l4.67,5.52L124,7.05h4.29l-6.8,8.08L128,22.89H123.7l-4.38-5.23-4.41,5.23h-4.26l6.54-7.76Z"/><path class="cls-1" d="M145.55,14.83v.25c0,4.3-4,7.81-8.88,7.81s-8.9-3.51-8.9-7.81v-.25c0-4.27,4-7.78,8.9-7.78S145.55,10.56,145.55,14.83Zm-14.35,0v.25c0,2.64,2.47,4.8,5.47,4.8s5.45-2.16,5.45-4.8v-.25c0-2.61-2.46-4.77-5.45-4.77S131.2,12.22,131.2,14.83Z"/><path class="cls-1" d="M150.64,15.08c0,2.64,2.47,4.8,5.45,4.8A5.7,5.7,0,0,0,160.4,18l3.2,1.27a9.3,9.3,0,0,1-7.51,3.61c-4.9,0-8.88-3.51-8.88-7.81v-.25c0-4.27,4-7.78,8.88-7.78a9.25,9.25,0,0,1,7.51,3.61l-3.2,1.25a5.76,5.76,0,0,0-4.31-1.85c-3,0-5.45,2.16-5.45,4.77Z"/><path class="cls-1" d="M172.29,7.05a7.29,7.29,0,0,1,3.83,1l-2,2.43a3.56,3.56,0,0,0-1.79-.46A3.18,3.18,0,0,0,168.92,13v9.9h-3.43V7.05h3.43v.77A7.46,7.46,0,0,1,172.29,7.05Z"/><path class="cls-1" d="M193.2,14.83v.25c0,4.3-4,7.81-8.89,7.81s-8.9-3.51-8.9-7.81v-.25c0-4.27,4-7.78,8.9-7.78S193.2,10.56,193.2,14.83Zm-14.36,0v.25c0,2.64,2.47,4.8,5.47,4.8s5.45-2.16,5.45-4.8v-.25c0-2.61-2.46-4.77-5.45-4.77S178.84,12.22,178.84,14.83Z"/><path class="cls-1" d="M193.43,7.05H197l2.84,9.67,2.61-9.34.09-.33h3.37l.09.31,2.75,9.36,2.7-9.67H215l-4.43,15.84H207l-2.75-9.34-2.63,9.34H198.1Z"/><path class="cls-1" d="M229.8,21.23a9.64,9.64,0,0,1-5.47,1.66c-4.88,0-8.88-3.51-8.88-7.81v-.25c0-4.27,4-7.78,8.88-7.78a9.63,9.63,0,0,1,5.47,1.64V2.17h3.44V22.89H229.8Zm0-6.4c0-2.63-2.46-4.77-5.47-4.77s-5.45,2.14-5.45,4.77v.25c0,2.64,2.44,4.8,5.45,4.8s5.47-2.16,5.47-4.8Z"/><polygon class="cls-2" points="2.16 33.89 38.99 1.73 76.29 1.73 39.42 33.89 2.16 33.89"/><polygon class="cls-3" points="2.16 66.06 38.99 33.89 76.29 33.89 39.42 66.06 2.16 66.06"/><polygon class="cls-4" points="39.42 66.06 76.21 66.06 76.21 79.54 24.47 79.54 39.42 66.06"/><path d="M129.23,34.59q5.52,4.6,5.52,12.67t-5.52,12.67q-5.52,4.6-15.15,4.6H101.83v15H94.75V30h19.33Q123.71,30,129.23,34.59Zm-5.1,20.92q3.54-2.86,3.54-8.25T124.13,39q-3.54-2.86-10.26-2.86h-12V58.38h12Q120.59,58.38,124.13,55.51Z"/><path d="M151.74,43.37a19,19,0,0,1,8.42-1.7v6.58a15,15,0,0,0-1.55-.07q-5.54,0-8.68,3.29t-3.15,9.38V79.54H140V42h6.51v6.3A11.59,11.59,0,0,1,151.74,43.37Z"/><path d="M170.64,77.49a18,18,0,0,1-7-6.83,19.39,19.39,0,0,1-2.52-9.88,19.33,19.33,0,0,1,2.52-9.87,17.67,17.67,0,0,1,7-6.8,21.86,21.86,0,0,1,20.07,0,17.7,17.7,0,0,1,6.93,6.8,19.33,19.33,0,0,1,2.52,9.87,19.39,19.39,0,0,1-2.52,9.88,18,18,0,0,1-6.93,6.83,21.54,21.54,0,0,1-20.07,0Zm16.53-5.13a11.7,11.7,0,0,0,4.49-4.68,15.42,15.42,0,0,0,0-13.8,11.47,11.47,0,0,0-4.49-4.64,13.77,13.77,0,0,0-13,0,11.76,11.76,0,0,0-4.53,4.64,15.17,15.17,0,0,0,0,13.8,12,12,0,0,0,4.53,4.68,13.48,13.48,0,0,0,13,0Z"/><path d="M238.17,42,221.75,79.54h-6.94L198.39,42h7.08l12.88,30.09L231.52,42Z"/><path d="M241.11,33.53a4.16,4.16,0,0,1-1.31-3.12,4.29,4.29,0,0,1,1.31-3.15A4.47,4.47,0,0,1,244.4,26a4.62,4.62,0,0,1,3.29,1.24A4.1,4.1,0,0,1,249,30.27a4.37,4.37,0,0,1-1.31,3.22,4.43,4.43,0,0,1-3.29,1.31A4.52,4.52,0,0,1,241.11,33.53ZM241,42h6.8V79.54H241Z"/><path d="M292.61,27V79.54h-6.52v-6a14.75,14.75,0,0,1-5.73,4.75A17.84,17.84,0,0,1,272.71,80,19.72,19.72,0,0,1,263,77.56a17.17,17.17,0,0,1-6.76-6.76,20.1,20.1,0,0,1-2.45-10,19.92,19.92,0,0,1,2.45-10A17.2,17.2,0,0,1,263,44.08a19.62,19.62,0,0,1,9.76-2.41,18.06,18.06,0,0,1,7.44,1.52,14.45,14.45,0,0,1,5.66,4.5V27ZM279.72,72.36a11.6,11.6,0,0,0,4.53-4.68,15.42,15.42,0,0,0,0-13.8,11.38,11.38,0,0,0-4.53-4.64,13.69,13.69,0,0,0-12.92,0,11.76,11.76,0,0,0-4.53,4.64,15.17,15.17,0,0,0,0,13.8,12,12,0,0,0,4.53,4.68,13.4,13.4,0,0,0,12.92,0Z"/><path d="M335.72,63.05H305.28a11.74,11.74,0,0,0,4.35,8,14.2,14.2,0,0,0,9.24,3,13.92,13.92,0,0,0,10.83-4.53l3.75,4.39a16.5,16.5,0,0,1-6.33,4.53,23.84,23.84,0,0,1-19-.89A17.37,17.37,0,0,1,301,70.69a19.62,19.62,0,0,1-2.51-9.91,19.89,19.89,0,0,1,2.44-9.84,17.54,17.54,0,0,1,6.73-6.83,19.1,19.1,0,0,1,9.66-2.44,18.74,18.74,0,0,1,9.59,2.44,17.26,17.26,0,0,1,6.59,6.83A20.84,20.84,0,0,1,335.86,61C335.86,61.51,335.81,62.2,335.72,63.05ZM309.13,50.38a11.94,11.94,0,0,0-3.85,7.78h24.06a12.05,12.05,0,0,0-3.85-7.75,12.67,12.67,0,0,0-16.36,0Z"/></svg>